<?xml version="1.0" standalone="no"?>
<!DOCTYPE svg PUBLIC "-//W3C//DTD SVG 20010904//EN"
 "http://www.w3.org/TR/2001/REC-SVG-20010904/DTD/svg10.dtd">
<svg version="1.0" xmlns="http://www.w3.org/2000/svg"
 width="744.000000pt" height="744.000000pt" viewBox="0 0 744.000000 744.000000"
 preserveAspectRatio="xMidYMid meet">
<metadata>
Created by potrace 1.14, written by Peter Selinger 2001-2017
</metadata>
<g transform="translate(0.000000,744.000000) scale(0.100000,-0.100000)"
fill="#000000" stroke="none">
<path d="M2039 7416 c-2 -2 -35 -6 -74 -10 -421 -37 -894 -244 -1220 -536
-258 -231 -429 -474 -589 -835 -54 -122 -128 -420 -144 -578 -10 -101 -9
-3406 1 -3495 5 -41 10 -83 13 -95 46 -244 97 -407 184 -594 257 -549 735
-969 1316 -1156 61 -20 126 -39 144 -42 18 -3 36 -8 40 -10 4 -2 22 -7 41 -10
19 -3 48 -8 64 -12 148 -30 239 -31 1945 -29 943 1 1731 5 1750 9 19 4 64 12
100 19 36 6 72 12 80 13 212 39 531 170 740 306 487 316 830 805 954 1362 31
139 34 155 43 242 10 91 10 3421 0 3500 -4 33 -12 87 -18 120 -6 33 -12 69
-14 80 -2 11 -12 56 -24 100 -212 827 -887 1460 -1719 1614 -59 11 -123 24
-142 28 -35 7 -3463 17 -3471 9z"/>
</g>
</svg>
